<?xml version="1.0" encoding="utf-8" ?><svg xmlns="http://www.w3.org/2000/svg" xmlns:xlink="http://www.w3.org/1999/xlink" width="1536" height="1024" viewBox="0 0 1536 1024"><path fill="#0C1030" d="M532.84 450.355C536.788 449.937 540.934 449.891 544.902 450.108C558.676 450.862 569.053 457.092 578.147 467.079L578.144 453.947L617.109 453.945C616.65 486 617.05 518.14 617.146 550.201C617.196 566.806 619.052 585.893 615.689 602.135C613.386 613.254 608.16 624.057 600.511 632.484C587.619 646.687 569.22 654.016 550.299 654.953C526.991 656.107 500.982 651.237 483.171 635.036L488.519 623.642C491.325 617.282 494.462 611.067 497.522 604.826C509.341 614.221 523.334 619.99 538.592 620.16C549.129 620.278 560.832 617.512 568.477 609.822C578.178 600.064 578.259 587.26 578.294 574.428C571.271 583.826 560.116 589.201 548.74 591.146C533.436 593.762 516.599 590.144 503.983 581.031C489.048 570.243 479.987 553.544 477.198 535.511C473.983 514.712 477.646 492.211 490.335 475.086C500.991 460.703 515.29 452.877 532.84 450.355ZM555.598 555.662C563.505 553.215 569.291 548.93 573.178 541.475C578.551 531.174 578.917 517.283 575.316 506.361C572.771 498.64 567.894 491.67 560.496 487.966C554.479 484.952 548.162 484.748 541.605 485.573C532.783 488.703 527.254 492.89 523.16 501.536C518.115 512.189 517.721 525.746 521.706 536.801C524.382 544.227 529.251 550.692 536.532 554.07C542.579 556.875 549.166 557.086 555.598 555.662Z"/><path fill="#0C1030" d="M389.801 450.423C392.14 449.94 394.936 450.051 397.351 450.029C414.26 449.879 431.594 456.057 443.64 468.055C461.225 485.572 462.865 508.704 462.895 531.98C431.675 531.547 400.388 531.914 369.161 532.05C370.179 537.245 371.348 541.983 374.479 546.356C379.172 552.91 386.208 556.446 394.067 557.627C410.32 560.069 423.47 554.219 436.137 544.768C439.05 548.59 441.647 552.697 444.337 556.681L454.444 571.272C442.365 582.827 427.587 589.731 410.945 591.514C389.68 593.791 367.662 590.312 350.677 576.478C336.608 565.019 328.828 548.277 327.127 530.395C325.208 510.211 329.555 489.61 342.811 473.792C355.017 459.228 371.162 452.089 389.801 450.423ZM369.888 506.519L399.784 506.528L421.502 506.51C419.989 499.369 417.512 492.821 411.102 488.703C405.274 484.957 398.535 484.721 391.823 484.9C384.816 486.105 379.124 488.163 374.935 494.239C372.432 497.87 370.997 502.282 369.888 506.519Z"/><path fill="#0C1030" d="M963.541 450.306C966.611 449.909 970.017 450.003 973.118 449.992C985.314 449.951 997.898 453.008 1006.7 461.939C1012.86 468.189 1016.73 476.531 1018.57 485.043C1021.51 498.629 1020.22 514.147 1020.21 528.016L1020.23 588.903L979.023 588.949C979.895 573.887 979.301 558.594 979.337 543.5C979.368 531.226 980.176 518.526 979.148 506.305C978.837 502.614 978.128 498.936 976.575 495.552C974.505 491.045 971.055 487.416 966.32 485.711C958.968 483.063 950 485.127 943.209 488.405C942.106 489.369 941.034 490.369 939.997 491.404C937.185 494.259 935.66 497.536 934.877 501.435C932.722 512.155 933.765 524.299 933.782 535.249L933.916 588.936L893.156 588.951L893.107 454.042L932.876 453.976L932.531 466.817C941.441 457.123 950.744 452.68 963.541 450.306Z"/><path fill="#0C1030" d="M751.897 450.413C770.372 447.509 793.247 454.86 808.442 465.035C804.586 475.425 798.639 485.791 793.755 495.792C783.838 489.306 772.301 483.994 760.221 483.779C755.364 483.692 748.813 484.628 745.341 488.406C744.192 489.665 743.615 491.343 743.746 493.042C744.361 502.001 774.742 507.604 782.451 510.593C788.789 513.05 794.974 516.415 799.924 521.13C806.842 527.72 810.029 536.107 810.134 545.584C810.27 557.782 807.543 567.924 798.807 576.681C786.558 588.957 770.012 591.875 753.384 592.024C732.906 592.02 715.989 585.69 699.195 574.218C704.658 564.339 709.78 554.255 715.022 544.256C725.077 551.062 736.574 557.056 748.9 557.947C755.619 558.433 762.725 558.766 768.057 554.017C770.003 552.283 771.128 550.781 771.258 548.127C767.693 537.776 741.091 534.023 731.343 530.633C725.698 528.67 720.254 526.166 715.506 522.489C708.699 517.217 704.134 510.171 703.159 501.525C701.808 489.546 703.966 477.958 711.67 468.465C721.621 456.203 736.816 451.909 751.897 450.413Z"/><path fill="#0C1030" d="M1101.83 450.421C1105.16 450.076 1108.44 449.983 1111.8 450.076C1129.99 450.495 1147.23 458.24 1159.63 471.555C1153.13 481.687 1145.75 491.671 1138.42 501.228C1132.12 495.375 1124.5 490.254 1116 488.41C1108.65 486.816 1100.89 487.661 1094.53 491.848C1086.94 496.842 1082.4 505.358 1080.74 514.13C1078.87 524.034 1080.67 534.779 1086.43 543.141C1090.57 549.164 1096.68 553.318 1103.9 554.6C1117.15 556.951 1128.18 551.132 1138.63 543.737C1141.95 548.579 1145.45 553.317 1148.86 558.095L1158.86 571.852C1147.06 582.96 1133.34 589.752 1117.11 591.54C1098.11 593.634 1078.01 589.617 1062.93 577.398C1047.96 565.276 1040.2 547.122 1038.45 528.257C1036.65 508.783 1042.01 488.626 1054.73 473.579C1067.09 458.952 1083.06 452.029 1101.83 450.421Z"/><path fill="#0C1030" d="M301.993 384.491L303.897 384.574C305.118 386.33 304.916 389.209 304.97 391.284C305.489 411.169 304.84 431.263 304.848 451.177L305.005 588.914L265.312 588.912C263.756 588.929 263.48 589.134 262.255 588.091C261.076 565.981 262.147 543.346 262.138 521.166L262.134 384.608C275.41 384.351 288.714 384.5 301.993 384.491Z"/><path fill="#0C1030" d="M641.269 453.989L683.345 453.975L683.284 588.951L641.284 588.906C642.27 544.026 641.425 498.892 641.269 453.989Z"/><path fill="#0C1030" d="M828.044 454.003L869.065 453.948L869.097 588.949C855.425 588.695 841.706 588.943 828.03 588.955L828.044 454.003Z"/><path fill="#1330A2" d="M844.931 385.243C859.539 383.297 872.941 393.61 874.806 408.232C876.671 422.854 866.287 436.203 851.659 437.988C837.143 439.759 823.924 429.47 822.073 414.962C820.222 400.453 830.436 387.174 844.931 385.243Z"/><path fill="#0C1030" d="M657.228 385.458C671.414 383.088 684.859 392.592 687.361 406.758C689.862 420.924 680.487 434.461 666.349 437.096C652.022 439.766 638.268 430.235 635.733 415.881C633.198 401.526 642.854 387.859 657.228 385.458Z"/></svg>